<svg width="160" height="30" viewBox="0 0 160 30" fill="none" xmlns="http://www.w3.org/2000/svg">
<path d="M46.8325 3H32.8217V11.6919L46.8325 3Z" fill="#0368FF"/>
<path fill-rule="evenodd" clip-rule="evenodd" d="M0 3H14.0108H16.6054V20.7726H32.8216V26.9996H16.6054V27H14.0108L14.0108 11.6919L0 3Z" fill="black"/>
<path d="M56.2622 23.5V6.53125H59.7778V20.5938H67.0903V23.5H56.2622ZM72.8794 6.53125V23.5H69.3638V6.53125H72.8794ZM75.7388 23.5V6.53125H79.2544V14.0547H79.4888L85.6528 6.53125H89.895L83.5669 14.125L89.9653 23.5H85.7466L81.0356 16.4922L79.2544 18.6484V23.5H75.7388ZM91.6528 23.5V6.53125H103.043V9.4375H95.1685V13.5625H102.458V16.4688H95.1685V20.5938H103.067V23.5H91.6528ZM105.786 23.5V6.53125H109.301V20.5938H116.614V23.5H105.786ZM122.403 6.53125V23.5H118.887V6.53125H122.403ZM140.801 15.0156C140.801 20.5586 137.368 23.7344 132.879 23.7344C128.356 23.7344 124.934 20.5352 124.934 15.0156C124.934 9.47266 128.356 6.29688 132.879 6.29688C137.368 6.29688 140.801 9.47266 140.801 15.0156ZM128.52 15.0156C128.52 18.6367 130.243 20.6055 132.879 20.6172C135.493 20.6055 137.227 18.6367 137.215 15.0156C137.227 11.3828 135.493 9.42578 132.879 9.41406C130.243 9.42578 128.52 11.3828 128.52 15.0156ZM157.489 6.53125V23.5H154.442L146.989 12.7188H146.848V23.5H143.333V6.53125H146.426L153.833 17.3125H153.997V6.53125H157.489Z" fill="black"/>
</svg>
