<svg width="160" height="29" viewBox="0 0 160 29" fill="none" xmlns="http://www.w3.org/2000/svg">
<path d="M46.8324 2.5H32.8216V11.1919L46.8324 2.5Z" fill="#0368FF"/>
<path fill-rule="evenodd" clip-rule="evenodd" d="M0 2.5H14.0108H16.6054V20.2726H32.8216V26.4996H16.6054V26.5H14.0108L14.0108 11.1919L0 2.5Z" fill="#DDDDDD"/>
<path d="M56.2621 23V6.03125H59.7777V20.0938H67.0902V23H56.2621ZM72.8793 6.03125V23H69.3636V6.03125H72.8793ZM75.7386 23V6.03125H79.2543V13.5547H79.4886L85.6527 6.03125H89.8949L83.5668 13.625L89.9652 23H85.7465L81.0355 15.9922L79.2543 18.1484V23H75.7386ZM91.6527 23V6.03125H103.043V8.9375H95.1683V13.0625H102.457V15.9688H95.1683V20.0938H103.067V23H91.6527ZM105.786 23V6.03125H109.301V20.0938H116.614V23H105.786ZM122.403 6.03125V23H118.887V6.03125H122.403ZM140.801 14.5156C140.801 20.0586 137.368 23.2344 132.879 23.2344C128.356 23.2344 124.934 20.0352 124.934 14.5156C124.934 8.97266 128.356 5.79688 132.879 5.79688C137.368 5.79688 140.801 8.97266 140.801 14.5156ZM128.52 14.5156C128.52 18.1367 130.243 20.1055 132.879 20.1172C135.493 20.1055 137.227 18.1367 137.215 14.5156C137.227 10.8828 135.493 8.92578 132.879 8.91406C130.243 8.92578 128.52 10.8828 128.52 14.5156ZM157.489 6.03125V23H154.442L146.989 12.2188H146.848V23H143.332V6.03125H146.426L153.832 16.8125H153.996V6.03125H157.489Z" fill="#DDDDDD"/>
</svg>
